<?xml version="1.0" standalone="no"?>
<!DOCTYPE svg PUBLIC "-//W3C//DTD SVG 20010904//EN"
 "http://www.w3.org/TR/2001/REC-SVG-20010904/DTD/svg10.dtd">
<svg version="1.0" xmlns="http://www.w3.org/2000/svg"
 width="512.000000pt" height="512.000000pt" viewBox="0 0 512.000000 512.000000"
 preserveAspectRatio="xMidYMid meet">
<metadata>
Created by potrace 1.14, written by Peter Selinger 2001-2017
</metadata>
<g transform="translate(0.000000,512.000000) scale(0.100000,-0.100000)"
fill="#000000" stroke="none">
<path d="M1947 5109 c-11 -6 -35 -30 -55 -52 -21 -23 -44 -48 -52 -57 -112
-117 -205 -237 -238 -310 -65 -144 -67 -154 -67 -440 l0 -265 29 -59 c59 -120
175 -200 304 -209 27 -2 27 -10 2 -114 -11 -45 -21 -92 -24 -105 -2 -13 -21
-93 -40 -178 -20 -85 -38 -164 -40 -175 -3 -11 -20 -91 -40 -178 -49 -216 -47
-264 13 -359 101 -159 325 -177 456 -37 25 27 50 60 55 75 12 29 45 166 85
344 50 224 38 231 114 -70 66 -266 83 -310 138 -362 52 -49 161 -90 217 -82
169 25 271 133 278 291 0 22 -32 171 -72 331 -41 160 -72 294 -69 296 2 3 23
7 45 10 23 2 57 11 77 20 49 20 120 88 141 134 l17 37 97 0 c88 0 101 3 143
27 61 36 112 94 135 154 17 45 19 78 18 374 0 301 -2 331 -22 402 -28 99 -68
184 -100 208 -36 29 -85 26 -123 -8 -40 -35 -42 -78 -7 -152 47 -100 52 -146
53 -445 2 -295 -3 -332 -43 -354 -50 -27 -131 8 -133 56 -4 100 -77 147 -159
103 -32 -17 -41 -55 -44 -187 -3 -130 -8 -147 -55 -165 -69 -26 -131 29 -131
115 0 76 -25 111 -87 122 -36 6 -90 -26 -103 -61 -17 -43 -11 -123 14 -197 34
-99 206 -789 206 -824 -1 -38 -21 -62 -67 -78 -65 -23 -109 15 -128 110 -5 22
-9 45 -11 50 -37 146 -56 225 -60 245 -3 14 -37 153 -77 310 -70 278 -73 285
-105 306 -39 27 -86 23 -120 -10 -23 -23 -45 -92 -82 -265 -10 -47 -39 -176
-65 -286 -26 -110 -49 -211 -51 -224 -3 -12 -12 -53 -20 -90 -9 -36 -17 -70
-18 -76 -5 -25 -29 -56 -54 -69 -61 -30 -132 14 -132 83 0 17 75 356 125 566
74 311 82 371 83 600 l0 189 -33 33 c-35 35 -66 41 -109 21 -46 -20 -57 -50
-58 -156 0 -53 -2 -100 -4 -104 -6 -10 -63 9 -100 34 -58 40 -64 66 -64 283 0
107 5 218 11 247 23 113 77 197 243 378 97 106 106 119 106 158 -1 74 -83 126
-143 91z"/>
<path d="M3084 5086 c-39 -39 -43 -72 -17 -117 37 -62 136 -60 168 2 38 73
-12 149 -97 149 -11 0 -35 -15 -54 -34z"/>
<path d="M3436 2551 c-61 -19 -148 -96 -170 -150 -14 -37 -18 -40 -53 -38
-126 4 -235 -66 -285 -182 -15 -35 -19 -63 -16 -118 l3 -72 -38 -17 c-77 -35
-145 -139 -151 -232 -4 -63 18 -145 50 -188 15 -19 25 -36 23 -37 -112 -76
-160 -164 -152 -282 6 -90 38 -135 253 -355 687 -700 730 -739 881 -799 100
-40 145 -47 429 -66 36 -2 99 -7 141 -10 41 -3 87 -1 102 4 54 21 76 96 42
147 -21 33 -47 41 -142 49 -43 4 -98 8 -123 10 -25 2 -85 7 -135 10 -151 11
-199 22 -295 67 -58 27 -98 64 -358 327 -162 163 -359 361 -438 441 -93 94
-147 156 -153 176 -19 66 44 128 108 106 16 -6 117 -100 237 -221 203 -205
210 -211 249 -211 66 1 112 53 101 115 -5 27 -66 93 -304 335 -183 186 -302
314 -311 335 -12 30 -11 38 5 66 21 35 62 54 98 45 13 -3 151 -135 307 -292
156 -158 295 -297 309 -310 25 -24 36 -28 80 -26 61 3 107 81 79 134 -8 15
-164 180 -348 367 -184 187 -338 346 -343 353 -4 7 -8 28 -8 46 0 45 38 82 85
82 47 0 8 36 563 -527 108 -109 190 -185 206 -189 100 -25 164 96 92 172 -6 6
-140 142 -297 300 -157 159 -293 301 -303 316 -21 32 -16 83 11 109 22 22 71
30 98 17 11 -6 108 -100 215 -209 284 -289 579 -586 623 -625 48 -44 93 -46
138 -6 24 21 31 36 31 64 0 20 -4 43 -8 51 -5 8 -94 102 -198 208 l-188 193
28 23 c26 20 38 24 87 26 31 1 87 -17 104 -33 123 -119 479 -488 512 -530 58
-74 74 -84 124 -77 44 6 73 31 83 73 9 37 -2 66 -50 129 -45 58 -494 518 -553
567 -117 96 -325 92 -447 -9 l-29 -24 -171 169 c-94 93 -184 176 -201 184 -71
35 -155 42 -229 19z"/>
<path d="M1049 2367 c-48 -17 -83 -49 -312 -276 -159 -158 -275 -281 -303
-324 -84 -125 -118 -239 -129 -432 -13 -230 0 -195 -117 -310 -184 -182 -191
-191 -185 -237 6 -45 27 -73 65 -86 53 -18 82 2 255 176 137 138 167 174 168
198 5 156 21 362 31 404 33 134 66 177 350 463 232 233 240 239 280 240 33 1
45 -4 65 -28 20 -23 24 -36 20 -66 -3 -21 -14 -50 -26 -65 -30 -39 -28 -94 5
-128 15 -14 32 -26 38 -27 6 0 20 -2 30 -4 30 -6 54 11 136 91 41 40 86 77
100 82 41 15 85 -3 104 -41 19 -41 15 -65 -17 -113 -45 -65 -15 -146 59 -160
40 -7 80 15 139 77 67 71 132 81 170 26 30 -42 19 -84 -35 -141 -59 -63 -73
-99 -55 -143 28 -65 91 -80 160 -38 47 29 76 31 115 8 39 -23 48 -73 21 -116
-11 -18 -82 -94 -158 -169 -247 -245 -253 -251 -257 -285 -4 -41 25 -90 62
-104 53 -20 81 -4 203 117 l117 117 16 -25 c36 -55 40 -122 11 -178 -7 -14
-96 -106 -197 -206 -169 -167 -190 -184 -268 -222 -104 -49 -136 -55 -384 -67
-71 -4 -140 -11 -152 -15 -34 -13 -224 -210 -226 -234 -5 -75 25 -115 91 -122
41 -4 44 -2 130 81 l88 85 89 5 c270 15 342 29 464 90 92 47 145 91 348 296
181 182 213 227 231 321 18 100 -6 207 -65 284 l-35 45 32 37 c51 58 73 117
73 197 1 118 -57 209 -166 261 -36 17 -37 18 -37 74 1 101 -65 205 -159 254
-39 20 -128 33 -173 26 -34 -6 -37 -4 -62 39 -64 116 -210 174 -331 134 -50
-17 -54 -17 -61 6 -10 32 -82 97 -132 121 -64 30 -153 33 -224 7z"/>
</g>
</svg>
